# xmcd
#
# Track frame offsets: 
#        150
#        19598
#        35410
#        59541
#        86305
#        114421
#        135458
#        162304
#
# Disc length: 2466 seconds
#
# Revision: 0
# Processed by: cddbd v1.5.2PL0 Copyright (c) Steve Scherf et al.
# Submitted via: ExactAudioCopy v0.95a5
#
DISCID=5b09a008
DTITLE=Stan Street and the Streetwalkers - Don't Make Me Beg
DYEAR=2002
DGENRE=Blues
TTITLE0=Let's Work Together
TTITLE1=Jambalaya
TTITLE2=Raining In My Heart
TTITLE3=Sugar Sweet
TTITLE4=Stumblin' Block
TTITLE5=Rock This House
TTITLE6=Red Beans Cookin'
TTITLE7=Don't Make Me Beg
EXTD=
EXTT0=
EXTT1=
EXTT2=
EXTT3=
EXTT4=
EXTT5=
EXTT6=
EXTT7=
PLAYORDER=
